<?xml version="1.0" encoding="UTF-8" standalone="no"?>
<!-- Generator: Adobe Illustrator 21.0.0, SVG Export Plug-In . SVG Version: 6.00 Build 0)  -->

<svg
   xmlns:dc="http://purl.org/dc/elements/1.1/"
   xmlns:cc="http://creativecommons.org/ns#"
   xmlns:rdf="http://www.w3.org/1999/02/22-rdf-syntax-ns#"
   xmlns:svg="http://www.w3.org/2000/svg"
   xmlns="http://www.w3.org/2000/svg"
   xmlns:sodipodi="http://sodipodi.sourceforge.net/DTD/sodipodi-0.dtd"
   xmlns:inkscape="http://www.inkscape.org/namespaces/inkscape"
   version="1.1"
   id="Layer_1"
   x="0px"
   y="0px"
   viewBox="0 0 212 71"
   style="enable-background:new 0 0 212 71;"
   xml:space="preserve"
   inkscape:version="0.91 r13725"
   sodipodi:docname="logo_invert.svg"><metadata
     id="metadata3377"><rdf:RDF><cc:Work
         rdf:about=""><dc:format>image/svg+xml</dc:format><dc:type
           rdf:resource="http://purl.org/dc/dcmitype/StillImage" /><dc:title></dc:title></cc:Work></rdf:RDF></metadata><defs
     id="defs3375" /><sodipodi:namedview
     pagecolor="#ffffff"
     bordercolor="#666666"
     borderopacity="1"
     objecttolerance="10"
     gridtolerance="10"
     guidetolerance="10"
     inkscape:pageopacity="0"
     inkscape:pageshadow="2"
     inkscape:window-width="1075"
     inkscape:window-height="740"
     id="namedview3373"
     showgrid="false"
     inkscape:zoom="1.5271226"
     inkscape:cx="219.13912"
     inkscape:cy="17.277566"
     inkscape:window-x="503"
     inkscape:window-y="118"
     inkscape:window-maximized="0"
     inkscape:current-layer="Layer_1" /><style
     type="text/css"
     id="style3337">
	.st0{fill:#222222;}
	.st1{fill:#E2BC00;}
	.st2{fill:none;stroke:#000000;stroke-miterlimit:10;}
	.st3{opacity:0.5;}
	.st4{fill:#FFFFFF;}
	.st5{fill:#ED1C24;}
	.st6{fill:none;stroke:#FFFFFF;stroke-miterlimit:10;}
	.st7{fill:#BFBFBF;}
	.st8{fill:none;stroke:#C4C4C4;stroke-miterlimit:10;}
	.st9{fill:#DB524B;}
	.st10{fill:none;stroke:#222222;stroke-width:5;stroke-miterlimit:10;}
	.st11{clip-path:url(#SVGID_2_);}
	.st12{fill:#DDDDDD;}
	.st13{fill:#999999;}
	.st14{fill:#00E94A;}
	.st15{fill:#D63D34;}
	.st16{opacity:0.59;}
	.st17{fill:url(#SVGID_3_);}
	.st18{fill:#ECECEC;}
	.st19{fill:#CCCCCC;}
	.st20{fill:#EEEEEE;}
	.st21{fill:#666666;}
	.st22{fill:#383838;}
	.st23{fill:#F2DEDE;}
	.st24{fill:#EFD3D7;}
	.st25{fill:#606060;}
	.st26{fill:#DB0000;}
	.st27{fill:#FF9700;}
	.st28{fill:#0092FF;}
	.st29{fill:#CD00FF;}
	.st30{fill:#08686D;}
	.st31{fill:#92A4F7;}
	.st32{fill:#3FAA00;}
	.st33{fill:#705616;}
	.st34{fill:#07C1E0;}
</style><g
     id="g3339"
     style="fill:#000000"><path
       class="st4"
       d="M105,57.4L85.4,10.2c-0.9-2.6-3.6-4.3-6.4-3.9l-49,5.2l2.5,6.4l43.9-1.2l16,38.9L105,57.4z"
       id="path3341"
       style="fill:#000000" /><path
       class="st4"
       d="M82.3,50.8l-49.4,4.9c-2.8,0.2-5.4-1.5-6.3-4.1L7.2,4l12.6,2.1l15.8,39L79.5,44L82.3,50.8z"
       id="path3343"
       style="fill:#000000" /><g
       id="g3345"
       style="fill:#000000"><path
         class="st4"
         d="M127,38.2h-3.4v-3.1h3.4V38.2z M127,39.7v12.8h-3.4V39.7H127z"
         id="path3347"
         style="fill:#000000" /><path
         class="st4"
         d="M148.5,52.5h-3.4v-7.8c0-0.9-0.2-1.6-0.5-2c-0.4-0.4-0.8-0.6-1.3-0.6c-0.8,0-1.4,0.2-1.8,0.7    c-0.3,0.5-0.5,1.1-0.5,1.9v7.7h-3.4v-7.7c0-0.3,0-0.6,0-0.9c0-0.3-0.1-0.6-0.2-0.8c-0.1-0.3-0.3-0.5-0.6-0.6    c-0.3-0.2-0.7-0.3-1.2-0.3c-0.4,0-0.7,0.1-1,0.2c-0.3,0.1-0.5,0.3-0.6,0.5c-0.2,0.2-0.3,0.5-0.3,0.8c-0.1,0.3-0.1,0.6-0.1,1v7.8    h-3.4V39.7h3.2v1.9h0c0.1-0.2,0.3-0.4,0.4-0.7c0.2-0.3,0.4-0.5,0.7-0.7c0.3-0.2,0.6-0.4,1-0.6c0.4-0.2,0.9-0.2,1.5-0.2    c0.5,0,0.9,0,1.2,0.1c0.3,0.1,0.7,0.2,0.9,0.4c0.3,0.2,0.5,0.4,0.7,0.6c0.2,0.3,0.4,0.6,0.7,0.9c0.1-0.2,0.3-0.4,0.4-0.6    c0.2-0.2,0.4-0.5,0.7-0.7c0.3-0.2,0.6-0.4,1-0.6c0.4-0.2,0.8-0.2,1.3-0.2c0.6,0,1.2,0.1,1.8,0.3c0.5,0.2,1,0.5,1.4,0.8    c0.4,0.4,0.7,0.8,0.9,1.3c0.2,0.5,0.3,1.1,0.3,1.8V52.5z"
         id="path3349"
         style="fill:#000000" /><path
         class="st4"
         d="M154.7,41.6L154.7,41.6c0.2-0.3,0.4-0.5,0.6-0.8c0.2-0.3,0.5-0.5,0.8-0.7c0.3-0.2,0.7-0.4,1.1-0.5    c0.4-0.1,0.9-0.2,1.5-0.2c0.7,0,1.4,0.1,2,0.4c0.6,0.3,1.2,0.7,1.7,1.2c0.5,0.5,0.9,1.2,1.2,2.1c0.3,0.8,0.4,1.8,0.4,2.9    c0,0.9-0.1,1.7-0.3,2.6c-0.2,0.8-0.5,1.6-1,2.2c-0.4,0.6-1,1.2-1.7,1.5c-0.7,0.4-1.5,0.6-2.4,0.6c-0.6,0-1.1-0.1-1.5-0.2    c-0.4-0.1-0.8-0.3-1-0.5c-0.3-0.2-0.5-0.4-0.7-0.6c-0.2-0.2-0.3-0.4-0.4-0.6h0v6.6h-3.4V39.7h3.2V41.6z M154.7,46.4    c0,0.5,0.1,0.9,0.2,1.4c0.1,0.4,0.3,0.8,0.5,1.2c0.2,0.3,0.5,0.6,0.9,0.8c0.4,0.2,0.8,0.3,1.4,0.3c0.5,0,1-0.1,1.3-0.4    c0.4-0.3,0.6-0.6,0.8-1c0.2-0.4,0.4-0.8,0.4-1.2c0.1-0.4,0.1-0.9,0.1-1.2c0-0.5,0-1-0.1-1.5c-0.1-0.5-0.3-0.9-0.5-1.3    c-0.2-0.4-0.5-0.7-0.9-0.9c-0.4-0.2-0.8-0.3-1.3-0.3c-0.6,0-1,0.1-1.4,0.4c-0.4,0.2-0.7,0.6-0.9,0.9c-0.2,0.4-0.4,0.8-0.4,1.3    C154.8,45.4,154.7,45.9,154.7,46.4z"
         id="path3351"
         style="fill:#000000" /><path
         class="st4"
         d="M176.6,50c0,0.8,0.1,1.3,0.2,1.5c0.1,0.3,0.3,0.4,0.5,0.5v0.5h-3.6c0-0.1-0.1-0.3-0.1-0.4    c0-0.1-0.1-0.2-0.1-0.3c0-0.1,0-0.2-0.1-0.3c0-0.1,0-0.3,0-0.5c-0.2,0.2-0.4,0.4-0.6,0.6c-0.2,0.2-0.5,0.4-0.9,0.6    c-0.3,0.2-0.7,0.3-1.1,0.4c-0.4,0.1-0.9,0.2-1.5,0.2c-0.5,0-1-0.1-1.4-0.2c-0.5-0.1-0.9-0.4-1.2-0.7c-0.4-0.3-0.7-0.7-0.9-1.2    c-0.2-0.5-0.3-1-0.3-1.7c0-0.6,0.1-1.2,0.3-1.6c0.2-0.5,0.4-0.9,0.8-1.2c0.3-0.3,0.7-0.6,1.2-0.8c0.5-0.2,0.9-0.3,1.5-0.4l3-0.5    c0.3,0,0.5-0.1,0.8-0.3c0.3-0.1,0.4-0.4,0.4-0.8c0-0.4-0.1-0.6-0.2-0.8c-0.2-0.2-0.3-0.3-0.6-0.4s-0.5-0.2-0.7-0.2    c-0.3,0-0.5,0-0.7,0c-0.4,0-0.8,0.1-1,0.2c-0.3,0.1-0.5,0.3-0.6,0.4c-0.1,0.2-0.2,0.4-0.3,0.6c-0.1,0.2-0.1,0.4-0.1,0.6h-3.2    c0.1-1,0.3-1.8,0.7-2.4c0.4-0.6,0.8-1,1.3-1.4c0.5-0.3,1.1-0.5,1.8-0.6c0.6-0.1,1.3-0.1,1.9-0.1c0.4,0,1,0,1.5,0.1    c0.6,0.1,1.1,0.3,1.7,0.5s1,0.6,1.3,1.1c0.4,0.5,0.5,1.1,0.5,1.9V50z M173.3,46.3c-0.2,0.1-0.4,0.2-0.7,0.4    c-0.3,0.1-0.8,0.2-1.5,0.3c-0.3,0-0.6,0.1-0.9,0.2c-0.3,0.1-0.5,0.2-0.7,0.3c-0.2,0.1-0.4,0.3-0.5,0.5c-0.1,0.2-0.2,0.5-0.2,0.9    c0,0.3,0.1,0.5,0.2,0.7c0.1,0.2,0.2,0.4,0.4,0.5c0.2,0.1,0.3,0.2,0.5,0.3c0.2,0,0.4,0.1,0.5,0.1c0.4,0,0.7-0.1,1.1-0.2    c0.4-0.1,0.7-0.3,1-0.5c0.3-0.2,0.5-0.5,0.7-0.8c0.2-0.3,0.3-0.7,0.3-1V46.3z"
         id="path3353"
         style="fill:#000000" /><path
         class="st4"
         d="M190.6,47.8c0,0.2-0.1,0.5-0.1,0.8c-0.1,0.3-0.2,0.7-0.4,1c-0.2,0.4-0.4,0.7-0.7,1.1c-0.3,0.4-0.6,0.7-1.1,1    c-0.4,0.3-0.9,0.5-1.5,0.7c-0.6,0.2-1.3,0.3-2.1,0.3c-1.2,0-2.2-0.2-3-0.6c-0.8-0.4-1.4-0.9-1.8-1.6c-0.4-0.6-0.7-1.3-0.9-2.1    c-0.2-0.7-0.3-1.5-0.3-2.1c0-1,0.1-2,0.3-2.8c0.2-0.9,0.6-1.6,1.1-2.2c0.5-0.6,1.1-1.1,1.9-1.5c0.8-0.4,1.7-0.5,2.8-0.5    c0.5,0,1.1,0.1,1.7,0.2c0.6,0.1,1.2,0.4,1.8,0.7c0.6,0.4,1,0.9,1.5,1.5c0.4,0.6,0.7,1.5,0.7,2.5h-3.4c0-0.2-0.1-0.4-0.2-0.7    c-0.1-0.2-0.2-0.5-0.4-0.7c-0.2-0.2-0.4-0.4-0.6-0.5c-0.2-0.1-0.5-0.2-0.9-0.2H185c-0.5,0-1,0.1-1.3,0.4c-0.3,0.2-0.6,0.5-0.8,0.9    c-0.2,0.4-0.3,0.8-0.4,1.2c-0.1,0.4-0.1,0.8-0.1,1.2c0,0.4,0,0.8,0,1.2c0,0.5,0.1,0.9,0.3,1.4c0.2,0.4,0.4,0.8,0.8,1.1    c0.3,0.3,0.8,0.5,1.5,0.5c0.4,0,0.8-0.1,1.1-0.3c0.3-0.2,0.5-0.4,0.7-0.6c0.2-0.2,0.3-0.5,0.4-0.7c0.1-0.3,0.1-0.5,0.1-0.6H190.6z    "
         id="path3355"
         style="fill:#000000" /><path
         class="st4"
         d="M196.7,39.7h2.1v2.4h-2.1v6.9c0,0.2,0,0.4,0,0.5c0,0.1,0.1,0.2,0.2,0.3c0.1,0.1,0.2,0.1,0.4,0.2    c0.2,0,0.5,0.1,0.8,0.1c0.1,0,0.2,0,0.3,0c0.1,0,0.2,0,0.4,0v2.5c-0.3,0-0.5,0-0.8,0c-0.3,0-0.5,0-0.8,0h-0.4    c-0.7,0-1.3-0.1-1.8-0.2c-0.4-0.1-0.8-0.3-1-0.6c-0.2-0.2-0.4-0.5-0.5-0.9c-0.1-0.3-0.1-0.7-0.1-1.1v-7.8h-1.7v-2.4h1.7v-3.5h3.4    V39.7z"
         id="path3357"
         style="fill:#000000" /></g><g
       id="g3359"
       style="fill:#000000"><path
         class="st4"
         d="M107.9,31.3l-5.5,0l-7.3-20l5.9,0l4.2,14.7l0.1,0l4.2-14.8l5.6,0L107.9,31.3z"
         id="path3361"
         style="fill:#000000" /><path
         class="st4"
         d="M123.3,8.8l-5.3,0l0-4.9l5.3,0L123.3,8.8z M123.3,11.2l0.1,20l-5.3,0l-0.1-20L123.3,11.2z"
         id="path3363"
         style="fill:#000000" /><path
         class="st4"
         d="M139.7,17.2c-0.1-0.3-0.1-0.6-0.3-1c-0.1-0.3-0.3-0.6-0.6-0.8c-0.3-0.2-0.6-0.4-1-0.6c-0.4-0.1-1-0.2-1.7-0.2    c-0.7,0-1.3,0.1-1.7,0.2c-0.4,0.1-0.8,0.3-1,0.5s-0.4,0.4-0.4,0.6c-0.1,0.2-0.1,0.5-0.1,0.7c0,0.5,0.3,0.9,0.9,1.2    c0.6,0.3,1.4,0.5,2.3,0.7c0.9,0.2,1.9,0.4,3,0.6c1.1,0.2,2.1,0.5,3,1c0.9,0.4,1.7,1,2.3,1.8c0.6,0.7,0.9,1.7,0.9,2.9    c0,1.5-0.3,2.6-0.9,3.5c-0.6,0.9-1.4,1.6-2.3,2.1c-0.9,0.5-1.9,0.8-2.9,1c-1,0.2-1.9,0.3-2.7,0.3c-1.1,0-2.3-0.1-3.4-0.3    c-1.1-0.2-2.2-0.6-3.1-1.1c-0.9-0.5-1.7-1.2-2.3-2.1c-0.6-0.9-0.9-2-0.9-3.3l5.4,0c0,0.9,0.3,1.6,1,2.1c0.6,0.5,1.8,0.8,3.4,0.8    c0.7,0,1.2-0.1,1.7-0.2c0.4-0.2,0.8-0.3,1-0.5c0.2-0.2,0.4-0.4,0.5-0.7c0.1-0.2,0.1-0.5,0.1-0.7c0-0.6-0.3-1-0.9-1.3    c-0.6-0.3-1.4-0.5-2.3-0.7c-0.9-0.2-1.9-0.4-3-0.6c-1.1-0.2-2.1-0.5-3-0.9c-0.9-0.4-1.7-1-2.3-1.7c-0.6-0.7-0.9-1.7-0.9-3    c0-0.7,0.1-1.5,0.4-2.3c0.2-0.8,0.7-1.5,1.3-2.2c0.6-0.7,1.5-1.2,2.5-1.6c1-0.4,2.3-0.7,3.9-0.7c1,0,2,0.1,3,0.2    c1,0.2,2,0.5,2.8,0.9c0.9,0.5,1.6,1.1,2.2,2c0.6,0.9,0.9,2,1.1,3.4L139.7,17.2z"
         id="path3365"
         style="fill:#000000" /><path
         class="st4"
         d="M167.5,30.9l-5,0l0-2.8l-0.1,0c-0.6,1.1-1.4,1.9-2.4,2.5c-1,0.6-2.2,0.9-3.6,0.9c-1,0-1.9-0.1-2.7-0.4    c-0.8-0.3-1.6-0.7-2.2-1.3c-0.6-0.6-1.1-1.4-1.4-2.3c-0.3-0.9-0.5-2-0.5-3.3L149.3,11l5.3,0l0.1,12.4c0,0.8,0.1,1.4,0.3,1.9    c0.2,0.5,0.5,0.8,0.8,1.1c0.3,0.3,0.7,0.4,1.1,0.5c0.4,0.1,0.8,0.1,1.2,0.1c0.4,0,0.9-0.1,1.4-0.2c0.5-0.1,0.9-0.4,1.3-0.7    c0.4-0.4,0.7-0.8,1-1.4c0.3-0.6,0.4-1.3,0.4-2.2L162.1,11l5.3,0L167.5,30.9z"
         id="path3367"
         style="fill:#000000" /><path
         class="st4"
         d="M188.6,26.9c0,1.2,0.1,2,0.4,2.4c0.2,0.4,0.5,0.6,0.8,0.7l0,0.8l-5.7,0c-0.1-0.2-0.1-0.4-0.2-0.6    c-0.1-0.2-0.1-0.3-0.1-0.5c0-0.2-0.1-0.3-0.1-0.5c0-0.2-0.1-0.4-0.1-0.7c-0.3,0.3-0.6,0.6-1,1c-0.4,0.4-0.8,0.7-1.3,0.9    c-0.5,0.3-1.1,0.5-1.8,0.7c-0.7,0.2-1.4,0.3-2.3,0.3c-0.8,0-1.5-0.1-2.2-0.3c-0.7-0.2-1.4-0.5-2-1c-0.6-0.5-1-1.1-1.4-1.8    c-0.4-0.7-0.5-1.6-0.5-2.6c0-1,0.1-1.8,0.4-2.6c0.3-0.7,0.7-1.4,1.2-1.9c0.5-0.5,1.1-1,1.9-1.3c0.7-0.3,1.5-0.5,2.3-0.7l4.7-0.7    c0.4-0.1,0.8-0.2,1.2-0.4c0.4-0.2,0.6-0.6,0.6-1.2c0-0.6-0.1-1-0.4-1.3c-0.2-0.3-0.5-0.5-0.9-0.7c-0.3-0.1-0.7-0.2-1.1-0.3    c-0.4,0-0.8-0.1-1.1,0c-0.7,0-1.2,0.1-1.6,0.3c-0.4,0.2-0.7,0.4-1,0.7c-0.2,0.3-0.4,0.6-0.5,0.9c-0.1,0.3-0.2,0.6-0.2,0.9l-5.1,0    c0.1-1.5,0.5-2.8,1-3.7c0.6-0.9,1.2-1.6,2.1-2.1c0.8-0.5,1.7-0.8,2.7-1c1-0.2,2-0.2,3-0.2c0.7,0,1.5,0.1,2.4,0.2    c0.9,0.1,1.8,0.4,2.6,0.8s1.5,1,2.1,1.8c0.6,0.8,0.9,1.8,0.9,3L188.6,26.9z M183.4,21.1c-0.3,0.2-0.7,0.4-1.2,0.6    c-0.5,0.2-1.3,0.4-2.4,0.5c-0.5,0.1-1,0.2-1.4,0.3c-0.4,0.1-0.8,0.3-1.1,0.5c-0.3,0.2-0.6,0.5-0.8,0.9c-0.2,0.4-0.3,0.8-0.3,1.4    c0,0.5,0.1,0.8,0.3,1.1c0.2,0.3,0.4,0.6,0.6,0.7c0.2,0.2,0.5,0.3,0.8,0.4c0.3,0.1,0.6,0.1,0.8,0.1c0.6,0,1.1-0.1,1.7-0.3    c0.6-0.2,1.1-0.5,1.5-0.8c0.4-0.3,0.8-0.8,1.1-1.2c0.3-0.5,0.4-1,0.4-1.6L183.4,21.1z"
         id="path3369"
         style="fill:#000000" /><path
         class="st4"
         d="M198.7,30.7l-5.3,0l-0.2-27l5.3,0L198.7,30.7z"
         id="path3371"
         style="fill:#000000" /></g></g></svg>