<svg id="Layer_1" data-name="Layer 1" xmlns="http://www.w3.org/2000/svg" viewBox="0 0 154 116"><defs><style>.cls-1{fill:#fff;}</style></defs><title>PointofSalesLogo</title><path class="cls-1" d="M111.55,72.12h-65v-60h65Zm-61-4h57V16.16h-57Z"/><path class="cls-1" d="M58,27.27H68.8c7.37,0,8.78,5.33,8.78,9,0,5.33-2.54,9.07-9.53,9.07H65V57H58Zm7,12.95h1.91c2.79,0,3.45-1.75,3.45-3.75,0-2.29-.75-4-3.58-4H65Z"/><path class="cls-1" d="M86.91,47.92v1c0,2.25.62,4,3,4s3.16-1.83,3.16-3.54c0-6.41-12.78-2.83-12.78-13.95,0-4.75,2.54-8.74,9.74-8.74,7,0,9.49,3.54,9.49,8.12v.71H92.82a6.11,6.11,0,0,0-.58-3.12,2.21,2.21,0,0,0-2.12-1c-1.75,0-2.79,1-2.79,3.21,0,6.2,12.78,3.08,12.78,13.57,0,6.74-3.75,9.45-10.16,9.45-5.08,0-9.78-1.54-9.78-7.74V47.92Z"/><path class="cls-1" d="M18.16,92.6H15.87V75.67h7.62c3.14,0,5,2,5,4.76a4.72,4.72,0,0,1-5,5H18.16Zm0-9.1h4.55c2.05,0,3.44-.75,3.44-3s-1.46-2.83-3.35-2.83H18.16Z"/><path class="cls-1" d="M35,79.91c3.94,0,5.73,3.33,5.73,6.51S38.89,92.93,35,92.93s-5.73-3.33-5.73-6.51S31,79.91,35,79.91Zm0,11.23c3,0,3.58-3.07,3.58-4.72s-.61-4.72-3.58-4.72-3.58,3.07-3.58,4.72S32,91.14,35,91.14Z"/><path class="cls-1" d="M43.09,78V75.67h2.08V78ZM45.17,92.6H43.09V80.27h2.08Z"/><path class="cls-1" d="M58.33,92.6H56.25V85c0-2.15-.61-3.23-2.64-3.23-1.18,0-3.25.75-3.25,4.1V92.6H48.28V80.27h2V82h0A4.47,4.47,0,0,1,54,79.91c1.91,0,4.32.78,4.32,4.29Z"/><path class="cls-1" d="M63.94,82v8c0,1,.83,1,1.25,1h.73V92.6c-.75.07-1.34.16-1.56.16-2.05,0-2.5-1.16-2.5-2.64V82H60.19V80.27h1.67V76.82h2.08v3.44h2V82Z"/><path class="cls-1" d="M72.5,79.91c3.94,0,5.73,3.33,5.73,6.51s-1.79,6.51-5.73,6.51-5.73-3.33-5.73-6.51S68.56,79.91,72.5,79.91Zm0,11.23c3,0,3.58-3.07,3.58-4.72s-.61-4.72-3.58-4.72-3.58,3.07-3.58,4.72S69.53,91.14,72.5,91.14Z"/><path class="cls-1" d="M83.16,82V92.6H81.09V82h-1.7V80.27h1.7V78.14c0-1.86,1.18-2.71,3.21-2.71.31,0,.61,0,.94,0v1.86c-.26,0-.59,0-.85,0-.9,0-1.23.45-1.23,1.44v1.53h2.08V82Z"/><path class="cls-1" d="M97.62,80.62c-.12-2.62-2.29-3.44-4.2-3.44-1.44,0-3.87.4-3.87,3,0,1.44,1,1.91,2,2.15l4.83,1.11c2.19.52,3.84,1.84,3.84,4.53,0,4-3.73,5.12-6.63,5.12-3.14,0-4.36-.94-5.12-1.63a5.21,5.21,0,0,1-1.72-4.29h2.15c0,3.07,2.5,4,4.67,4,1.65,0,4.43-.42,4.43-2.85,0-1.77-.83-2.33-3.61-3l-3.47-.8c-1.11-.26-3.61-1-3.61-4,0-2.64,1.72-5.24,5.83-5.24,5.92,0,6.51,3.54,6.6,5.4Z"/><path class="cls-1" d="M102.45,84c.09-2.95,2.05-4.1,5.09-4.1,1,0,4.58.28,4.58,3.44v7.1c0,.52.26.73.68.73a4,4,0,0,0,.68-.09V92.6a3.84,3.84,0,0,1-1.13.24c-1.84,0-2.12-.94-2.19-1.89a5.61,5.61,0,0,1-4.46,2,3.56,3.56,0,0,1-3.87-3.56c0-1,.31-3.44,3.75-3.87L109,85.1c.5,0,1.08-.24,1.08-1.46s-.94-2-2.9-2c-2.36,0-2.69,1.44-2.83,2.38ZM110,86.3c-.33.26-.85.45-3.42.78-1,.14-2.64.45-2.64,2a2,2,0,0,0,2.24,2.15c1.93,0,3.82-1.25,3.82-2.9Z"/><path class="cls-1" d="M117.76,92.6h-2.08V75.67h2.08Z"/><path class="cls-1" d="M131.34,88.73A5.13,5.13,0,0,1,125.8,93c-3.47,0-5.52-2.62-5.52-6.18,0-3.82,1.84-6.86,5.92-6.86,3.56,0,5.31,2.83,5.31,7.19h-9c0,2.57,1.2,4.06,3.58,4.06a3.13,3.13,0,0,0,3.18-2.43Zm-2-3.28c-.12-1.91-.92-3.68-3.44-3.68a3.62,3.62,0,0,0-3.42,3.68Z"/><path class="cls-1" d="M141,83.78c0-.78-.31-2.08-2.92-2.08-.64,0-2.45.21-2.45,1.75,0,1,.64,1.25,2.24,1.65l2.08.52c2.57.64,3.47,1.58,3.47,3.25,0,2.55-2.1,4.08-4.88,4.08-4.88,0-5.24-2.83-5.31-4.32h2c.07,1,.35,2.52,3.28,2.52,1.49,0,2.83-.59,2.83-2,0-1-.68-1.32-2.45-1.77l-2.41-.59c-1.72-.42-2.85-1.3-2.85-3,0-2.71,2.24-3.94,4.67-3.94,4.41,0,4.72,3.25,4.72,3.87Z"/><path class="cls-1" d="M19,105c-2.93,0-3.82-2.43-3.82-4.13s.9-4.13,3.82-4.13,3.82,2.43,3.82,4.13S21.95,105,19,105Zm0-7.31c-1.7,0-2.73,1.34-2.73,3.19s1,3.19,2.73,3.19,2.73-1.34,2.73-3.19S20.73,97.71,19,97.71Z"/><path class="cls-1" d="M28.63,104.81h-1V101.3c0-1-.28-1.5-1.22-1.5-.55,0-1.51.35-1.51,1.9v3.11H24V99.1h.91v.81h0a2.07,2.07,0,0,1,1.72-1,1.8,1.8,0,0,1,2,2Z"/><path class="cls-1" d="M31,104.81h-1V97h1Z"/><path class="cls-1" d="M32.49,98.07V97h1v1.09Zm1,6.75h-1V99.1h1Z"/><path class="cls-1" d="M39.54,104.81h-1V101.3c0-1-.28-1.5-1.22-1.5-.55,0-1.51.35-1.51,1.9v3.11h-1V99.1h.91v.81h0a2.07,2.07,0,0,1,1.72-1,1.8,1.8,0,0,1,2,2Z"/><path class="cls-1" d="M45.81,103a2.38,2.38,0,0,1-2.57,2,2.56,2.56,0,0,1-2.55-2.86c0-1.77.85-3.18,2.74-3.18,1.65,0,2.46,1.31,2.46,3.33H41.72c0,1.19.56,1.88,1.66,1.88A1.45,1.45,0,0,0,44.85,103Zm-.92-1.52c-.05-.88-.43-1.7-1.59-1.7a1.68,1.68,0,0,0-1.58,1.7Z"/><path class="cls-1" d="M54.91,99.27A1.71,1.71,0,0,0,53,97.67c-.67,0-1.79.19-1.79,1.38,0,.67.47.88.93,1l2.24.51a2,2,0,0,1,1.78,2.1c0,1.86-1.72,2.37-3.07,2.37a3.11,3.11,0,0,1-2.37-.75,2.41,2.41,0,0,1-.8-2h1c0,1.42,1.16,1.83,2.16,1.83.76,0,2.05-.2,2.05-1.32,0-.82-.38-1.08-1.67-1.39l-1.6-.37a1.89,1.89,0,0,1-1.67-1.84,2.4,2.4,0,0,1,2.7-2.42c2.74,0,3,1.64,3.06,2.5Z"/><path class="cls-1" d="M57.15,100.84c0-1.36.95-1.9,2.36-1.9.46,0,2.12.13,2.12,1.59v3.29c0,.24.12.34.32.34a1.84,1.84,0,0,0,.32,0v.7a1.77,1.77,0,0,1-.52.11c-.85,0-1-.44-1-.87a2.59,2.59,0,0,1-2.06.93,1.65,1.65,0,0,1-1.79-1.65,1.72,1.72,0,0,1,1.74-1.79l1.58-.2c.23,0,.5-.11.5-.68s-.44-.93-1.34-.93a1.14,1.14,0,0,0-1.31,1.1Zm3.51,1.06c-.15.12-.39.21-1.58.36-.47.07-1.22.21-1.22.93a.9.9,0,0,0,1,1c.9,0,1.77-.58,1.77-1.34Z"/><path class="cls-1" d="M64.23,104.81h-1V97h1Z"/><path class="cls-1" d="M70.52,103A2.38,2.38,0,0,1,68,105a2.56,2.56,0,0,1-2.55-2.86c0-1.77.85-3.18,2.74-3.18,1.65,0,2.46,1.31,2.46,3.33H66.43c0,1.19.56,1.88,1.66,1.88A1.45,1.45,0,0,0,69.56,103Zm-.92-1.52c-.05-.88-.43-1.7-1.59-1.7a1.68,1.68,0,0,0-1.58,1.7Z"/><path class="cls-1" d="M75,100.73c0-.36-.14-1-1.35-1-.29,0-1.14.1-1.14.81,0,.47.29.58,1,.76l1,.24c1.19.29,1.6.73,1.6,1.51,0,1.18-1,1.89-2.26,1.89-2.26,0-2.42-1.31-2.46-2h.93c0,.45.16,1.17,1.52,1.17.69,0,1.31-.27,1.31-.91,0-.46-.32-.61-1.14-.82l-1.11-.27c-.8-.2-1.32-.6-1.32-1.39,0-1.26,1-1.82,2.16-1.82,2,0,2.18,1.51,2.18,1.79Z"/><path class="cls-1" d="M86.81,104.81v-4.63c0-.23,0-1.22,0-2h0l-2.2,6.58h-1l-2.2-6.57h0c0,.72,0,1.71,0,1.94v4.63h-1V97h1.52l2.24,6.63h0L86.33,97h1.51v7.84Z"/><path class="cls-1" d="M89.3,100.84c0-1.36.95-1.9,2.36-1.9.46,0,2.12.13,2.12,1.59v3.29c0,.24.12.34.32.34a1.84,1.84,0,0,0,.32,0v.7a1.77,1.77,0,0,1-.52.11c-.85,0-1-.44-1-.87a2.59,2.59,0,0,1-2.06.93A1.65,1.65,0,0,1,89,103.33a1.72,1.72,0,0,1,1.74-1.79l1.58-.2c.23,0,.5-.11.5-.68s-.44-.93-1.34-.93a1.14,1.14,0,0,0-1.31,1.1Zm3.51,1.06c-.15.12-.39.21-1.58.36-.47.07-1.22.21-1.22.93a.9.9,0,0,0,1,1c.9,0,1.77-.58,1.77-1.34Z"/><path class="cls-1" d="M100,104.81h-1V101.3c0-1-.28-1.5-1.22-1.5-.55,0-1.51.35-1.51,1.9v3.11h-1V99.1h.91v.81h0a2.07,2.07,0,0,1,1.72-1,1.8,1.8,0,0,1,2,2Z"/><path class="cls-1" d="M101.43,100.84c0-1.36.95-1.9,2.36-1.9.46,0,2.12.13,2.12,1.59v3.29c0,.24.12.34.32.34a1.84,1.84,0,0,0,.32,0v.7a1.77,1.77,0,0,1-.52.11c-.85,0-1-.44-1-.87a2.59,2.59,0,0,1-2.06.93,1.65,1.65,0,0,1-1.79-1.65,1.72,1.72,0,0,1,1.74-1.79l1.58-.2c.23,0,.5-.11.5-.68s-.44-.93-1.34-.93a1.14,1.14,0,0,0-1.31,1.1Zm3.51,1.06c-.15.12-.39.21-1.58.36-.47.07-1.22.21-1.22.93a.9.9,0,0,0,1,1c.9,0,1.77-.58,1.77-1.34Z"/><path class="cls-1" d="M112.27,104.34c0,.82,0,2.87-2.65,2.87a2,2,0,0,1-2.18-1.7h1a1.17,1.17,0,0,0,1.29.91c1.66,0,1.63-1.33,1.63-2v-.24h0v0a1.72,1.72,0,0,1-1.52.76c-1.94,0-2.51-1.82-2.51-3.19,0-1.6.86-2.85,2.38-2.85a1.93,1.93,0,0,1,1.7,1h0V99.1h.91Zm-2.48-.2c.61,0,1.56-.4,1.56-1.92,0-.93-.15-2.42-1.54-2.42s-1.56,1.41-1.56,2.14C108.26,103.2,108.75,104.15,109.8,104.15Z"/><path class="cls-1" d="M118.45,103a2.38,2.38,0,0,1-2.57,2,2.56,2.56,0,0,1-2.55-2.86c0-1.77.85-3.18,2.74-3.18,1.65,0,2.46,1.31,2.46,3.33h-4.17c0,1.19.56,1.88,1.66,1.88a1.45,1.45,0,0,0,1.47-1.12Zm-.92-1.52c-.05-.88-.43-1.7-1.59-1.7a1.68,1.68,0,0,0-1.58,1.7Z"/><path class="cls-1" d="M119.67,99.1h.91v.81h0a2,2,0,0,1,1.72-1,1.55,1.55,0,0,1,1.52.93,2.09,2.09,0,0,1,1.75-.93,1.72,1.72,0,0,1,1.77,1.92v4h-1v-3.69c0-.79-.24-1.32-1.06-1.32a1.45,1.45,0,0,0-1.34,1.53v3.48h-1v-4c0-.48-.19-1.06-.9-1.06-.55,0-1.51.35-1.51,1.9v3.11h-1Z"/><path class="cls-1" d="M133.61,103a2.38,2.38,0,0,1-2.57,2,2.56,2.56,0,0,1-2.55-2.86c0-1.77.85-3.18,2.74-3.18,1.65,0,2.46,1.31,2.46,3.33h-4.17c0,1.19.56,1.88,1.66,1.88a1.45,1.45,0,0,0,1.47-1.12Zm-.92-1.52c-.05-.88-.43-1.7-1.59-1.7a1.68,1.68,0,0,0-1.58,1.7Z"/><path class="cls-1" d="M139.49,104.81h-1V101.3c0-1-.28-1.5-1.22-1.5-.55,0-1.51.35-1.51,1.9v3.11h-1V99.1h.91v.81h0a2.07,2.07,0,0,1,1.72-1,1.8,1.8,0,0,1,2,2Z"/><path class="cls-1" d="M142.08,99.9v3.71c0,.45.38.45.58.45H143v.75c-.35,0-.62.08-.72.08-.95,0-1.16-.53-1.16-1.22V99.9h-.77v-.8h.77V97.51h1V99.1H143v.8Z"/></svg>