<svg id="Layer_1" data-name="Layer 1" xmlns="http://www.w3.org/2000/svg" viewBox="0 0 236 226"><defs><style>.cls-1,.cls-2{fill:#fff;}.cls-2{font-size:46.79px;font-family:ArialMT, Arial;}</style></defs><title>icons</title><path class="cls-1" d="M120.11,131.1a40,40,0,1,1,40-40A40,40,0,0,1,120.11,131.1Zm0-74.69A34.69,34.69,0,1,0,154.8,91.1,34.73,34.73,0,0,0,120.11,56.41Z"/><path class="cls-1" d="M120.11,116.39A25.29,25.29,0,1,1,145.4,91.1,25.32,25.32,0,0,1,120.11,116.39Zm0-45.27a20,20,0,1,0,20,20A20,20,0,0,0,120.11,71.12Z"/><path class="cls-1" d="M120.11,103.45A12.35,12.35,0,1,1,132.45,91.1,12.36,12.36,0,0,1,120.11,103.45Zm0-19.39a7,7,0,1,0,7,7A7,7,0,0,0,120.11,84.06Z"/><path class="cls-1" d="M120,94.3A2.66,2.66,0,0,1,118,89.81L155.19,50.7A2.66,2.66,0,1,1,159,54.36L121.9,93.47A2.65,2.65,0,0,1,120,94.3Z"/><path class="cls-1" d="M173.15,55.18H156.94a2.65,2.65,0,0,1-2.65-2.66v-16a2.66,2.66,0,0,1,5.31,0v13.3h13.56a2.66,2.66,0,1,1,0,5.32Z"/><text class="cls-2" transform="translate(34.52 197.02)">Upgrade</text></svg>