<svg id="Layer_1" data-name="Layer 1" xmlns="http://www.w3.org/2000/svg" viewBox="0 0 236 226"><defs><style>.cls-1,.cls-2{fill:#fff;}.cls-2{font-size:46.79px;font-family:ArialMT, Arial;}</style></defs><title>icons</title><path class="cls-1" d="M91.64,98.18A2.67,2.67,0,0,1,89,94.83l4.28-16.38A24.21,24.21,0,0,1,77.42,55.67V49.6a24.32,24.32,0,0,1,24.29-24.29H129.1A24.32,24.32,0,0,1,153.4,49.6v6.07a24.54,24.54,0,0,1-.33,4,2.67,2.67,0,0,1-5.27-.87,19.16,19.16,0,0,0,.26-3.12V49.6a19,19,0,0,0-19-19H101.71a19,19,0,0,0-19,19v6.07A18.89,18.89,0,0,0,97.19,74.06a2.67,2.67,0,0,1,2,3.27L96.43,87.7l14-12.41a2.67,2.67,0,0,1,1.77-.67h9.13a2.67,2.67,0,0,1,0,5.34h-8.11L93.4,97.51A2.66,2.66,0,0,1,91.64,98.18Z"/><path class="cls-1" d="M97.32,55.54h-1.2a2.67,2.67,0,0,1,0-5.34h1.2a2.67,2.67,0,1,1,0,5.34Z"/><path class="cls-1" d="M123.71,55.54h-2.2a2.67,2.67,0,1,1,0-5.34h2.2a2.67,2.67,0,1,1,0,5.34Zm-13.19,0h-2.2a2.67,2.67,0,1,1,0-5.34h2.2a2.67,2.67,0,1,1,0,5.34Z"/><path class="cls-1" d="M135.9,55.54h-1.2a2.67,2.67,0,1,1,0-5.34h1.2a2.67,2.67,0,0,1,0,5.34Z"/><path class="cls-1" d="M133.85,80.07H132.7a2.67,2.67,0,0,1,0-5.34h1.15a2.67,2.67,0,0,1,0,5.34Z"/><path class="cls-1" d="M146.17,80.07h-2.05a2.67,2.67,0,1,1,0-5.34h2.05a2.67,2.67,0,0,1,0,5.34Z"/><path class="cls-1" d="M157.59,80.07h-1.14a2.67,2.67,0,0,1,0-5.34h1.14a2.67,2.67,0,0,1,0,5.34Z"/><path class="cls-1" d="M160.9,107.7a2.67,2.67,0,0,1-1.77-.67l-12.89-11.4H136.07a17,17,0,0,1-17-17v-4a17,17,0,0,1,17-17h18.16a17,17,0,0,1,17,17v4a17,17,0,0,1-10.38,15.65l2.63,10.08a2.67,2.67,0,0,1-2.58,3.35ZM136.07,62.94A11.68,11.68,0,0,0,124.4,74.61v4a11.68,11.68,0,0,0,11.66,11.66h11.19A2.67,2.67,0,0,1,149,91l7.08,6.26-1-4A2.66,2.66,0,0,1,157,89.94a11.63,11.63,0,0,0,8.89-11.32v-4a11.68,11.68,0,0,0-11.66-11.66Z"/><text class="cls-2" transform="translate(42.38 181.02)">Support</text></svg>